<svg xmlns="http://www.w3.org/2000/svg" width="32" height="32" viewBox="0 0 32 32">
  <!-- Sun -->
  <circle cx="18" cy="12" r="6" fill="#facc15"/>
  <!-- Sun rays -->
  <g stroke="#facc15" stroke-width="2" stroke-linecap="round">
    <line x1="18" y1="2" x2="18" y2="4"/>
    <line x1="18" y1="20" x2="18" y2="22"/>
    <line x1="8" y1="12" x2="10" y2="12"/>
    <line x1="26" y1="12" x2="28" y2="12"/>
    <line x1="10.9" y1="4.9" x2="12.3" y2="6.3"/>
    <line x1="23.7" y1="17.7" x2="25.1" y2="19.1"/>
    <line x1="10.9" y1="19.1" x2="12.3" y2="17.7"/>
    <line x1="23.7" y1="6.3" x2="25.1" y2="4.9"/>
  </g>
  <!-- Cloud -->
  <path d="M8 27a5 5 0 0 1-.3-10 6.5 6.5 0 0 1 12.6 0A4 4 0 0 1 20 27Z" fill="#60a5fa"/>
</svg>
